<svg xmlns="http://www.w3.org/2000/svg" version="1.1" xmlns:xlink="http://www.w3.org/1999/xlink" xmlns:svgjs="http://svgjs.dev/svgjs" width="1000" height="1000" viewBox="0 0 1000 1000"><rect width="1000" height="1000" fill="#ffffff"></rect><g transform="matrix(0.7,0,0,0.7,149.57575757575756,419.0977185843419)"><svg viewBox="0 0 396 92" data-background-color="#ffffff" preserveAspectRatio="xMidYMid meet" height="232" width="1000" xmlns="http://www.w3.org/2000/svg" xmlns:xlink="http://www.w3.org/1999/xlink"><g id="tight-bounds" transform="matrix(1,0,0,1,0.2400000000000091,-0.16865831132668063)"><svg viewBox="0 0 395.52 92.33731662265336" height="92.33731662265336" width="395.52"><g><svg viewBox="0 0 548.3651937946265 128.02025314587658" height="92.33731662265336" width="395.52"><g transform="matrix(1,0,0,1,0,37.72098594793829)"><svg viewBox="0 0 395.52 52.57828125" height="52.57828125" width="395.52"><g id="textblocktransform"><svg viewBox="0 0 395.52 52.57828125" height="52.57828125" width="395.52" id="textblock"><g><svg viewBox="0 0 395.52 52.57828125" height="52.57828125" width="395.52"><g transform="matrix(1,0,0,1,0,0)"><svg width="395.52" viewBox="2.5 -40.95 406.46999999999997 54.45" height="52.57828125" data-palette-color="#0063db"><g class="undefined-text-0" data-fill-palette-color="primary" id="text-0"><path d="M2.5 0L2.5-2.15 6.8-2.6 6.8-34.5 2.8-35.1 2.8-37.15 8.9-37.15Q10.25-37.15 12.75-37.35L12.75-37.35Q15.15-37.55 16.3-37.55L16.3-37.55Q23.45-37.55 26.5-35.15 29.55-32.75 29.55-27.75L29.55-27.75Q29.55-24.1 27.53-21.15 25.5-18.2 22.05-17.2L22.05-17.2Q23.35-16.35 24.68-14.38 26-12.4 27.95-8.9L27.95-8.9Q29.65-5.85 30.68-4.33 31.7-2.8 32.5-2.65L32.5-2.65 34.6-2.1 34.6 0 28.75 0Q27.95 0 26.9-1.7 25.85-3.4 23.95-7.2L23.95-7.2Q21.9-11.35 20.58-13.55 19.25-15.75 17.95-16.5L17.95-16.5Q11.85-16.5 10.9-16.55L10.9-16.55 10.9-2.6 16.05-2.15 16.05 0 2.5 0ZM17.65-18.95Q21.1-18.95 23.1-21.1 25.1-23.25 25.1-27.4L25.1-27.4Q25.1-31.05 23.05-33.08 21-35.1 15.9-35.1L15.9-35.1Q14.15-35.1 12.45-34.9L12.45-34.9Q11.25-34.8 10.9-34.8L10.9-34.8 10.9-19Q11.8-18.95 14.5-18.95L14.5-18.95 17.65-18.95ZM49.05 0.55Q43.25 0.55 40.12-3.43 37-7.4 37-14L37-14Q37-18.25 38.65-21.55 40.3-24.85 43.22-26.68 46.15-28.5 49.8-28.5L49.8-28.5Q54.25-28.5 56.72-25.95 59.2-23.4 59.4-18.6L59.4-18.6Q59.4-15.5 59.1-14.2L59.1-14.2 41.3-14.2Q41.3-8.95 43.67-5.63 46.05-2.3 50.35-2.3L50.35-2.3Q52.45-2.3 54.65-3.05 56.85-3.8 58.05-4.85L58.05-4.85 58.85-3Q57.4-1.5 54.62-0.48 51.85 0.55 49.05 0.55L49.05 0.55ZM41.35-16.55L54.9-16.55Q55.05-17.6 55.05-18.75L55.05-18.75Q55-22.05 53.47-24 51.95-25.95 48.8-25.95L48.8-25.95Q41.95-25.95 41.35-16.55L41.35-16.55ZM74.9 0.55Q71.95 0.55 69.45-0.98 66.95-2.5 65.45-5.6 63.95-8.7 63.95-13.2L63.95-13.2Q63.95-17.5 65.7-20.98 67.45-24.45 70.67-26.48 73.9-28.5 78.2-28.5L78.2-28.5Q80.95-28.5 83.5-27.9L83.5-27.9 83.5-37.8 78.3-38.3 78.3-40.1 86.5-40.95 86.59-40.95 87.55-40.25 87.55-2.25 90.59-2.25 90.59-0.3Q90.34-0.25 88.9 0.1 87.45 0.45 85.8 0.45L85.8 0.45Q84.65 0.45 84.17 0.05 83.7-0.35 83.7-1.7L83.7-1.7 83.7-3.45Q82.15-1.75 79.92-0.6 77.7 0.55 74.9 0.55L74.9 0.55ZM76.55-2.6Q78.7-2.6 80.62-3.63 82.55-4.65 83.5-5.9L83.5-5.9 83.5-24.3Q83.09-25 81.42-25.5 79.75-26 77.84-26L77.84-26Q73.55-26 70.95-22.93 68.34-19.85 68.34-13.6L68.34-13.6Q68.34-8 70.65-5.3 72.95-2.6 76.55-2.6L76.55-2.6Z" fill="#0063db" data-fill-palette-color="primary"></path><path d="M109.44 0.55Q104.09 0.55 100.24-1.85 96.39-4.25 94.39-8.6 92.39-12.95 92.39-18.75L92.39-18.75Q92.39-24.2 94.74-28.5 97.09-32.8 101.14-35.18 105.19-37.55 110.19-37.55L110.19-37.55Q112.74-37.55 115.12-37.15 117.49-36.75 118.94-36.4 120.39-36.05 120.74-35.95L120.74-35.95 120.34-27.8 117.74-27.8 116.64-33.6Q115.89-34.25 113.94-34.7 111.99-35.15 109.19-35.15L109.19-35.15Q105.74-35.15 102.99-33.27 100.24-31.4 98.67-27.8 97.09-24.2 97.09-19.2L97.09-19.2Q97.09-14.5 98.47-10.55 99.84-6.6 102.64-4.23 105.44-1.85 109.54-1.85L109.54-1.85Q112.39-1.85 113.99-2.33 115.59-2.8 116.69-3.7L116.69-3.7 118.69-8.4 121.14-8.05 119.89-1.35Q118.69-1.3 116.99-0.7L116.99-0.7Q115.19-0.1 113.54 0.23 111.89 0.55 109.44 0.55L109.44 0.55ZM129.04 12.45Q128.34 12.45 127.61 12.35 126.89 12.25 126.59 12.1L126.59 12.1 126.59 8.4Q127.19 8.7 129.14 8.7L129.14 8.7Q130.69 8.7 131.96 8.08 133.24 7.45 134.59 5.55 135.94 3.65 137.24 0L137.24 0 135.04 0 125.49-25.05 123.14-25.7 123.14-27.75 134.19-27.75 134.19-25.7 130.14-25.1 135.39-9.8 137.99-1.65 140.49-9.85 145.19-25.1 141.69-25.7 141.69-27.75 151.29-27.75 151.29-25.7 148.69-25.1Q144.94-13.6 142.76-7.13 140.59-0.65 139.99 0.8L139.99 0.8Q138.24 5.2 136.89 7.58 135.54 9.95 133.69 11.2 131.84 12.45 129.04 12.45L129.04 12.45ZM151.49-38.25L151.49-40.1 158.79-40.95 158.89-40.95 159.84-40.25 159.84-25.05Q161.39-26.5 163.56-27.5 165.74-28.5 168.39-28.5L168.39-28.5Q171.34-28.5 173.81-27.05 176.29-25.6 177.81-22.55 179.34-19.5 179.34-14.9L179.34-14.9Q179.34-10.6 177.59-7.08 175.84-3.55 172.59-1.5 169.34 0.55 165.09 0.55L165.09 0.55Q161.99 0.55 159.19-0.1 156.39-0.75 155.79-1.35L155.79-1.35 155.79-37.8 151.49-38.25ZM166.74-25.45Q164.64-25.45 162.79-24.45 160.94-23.45 159.84-22.25L159.84-22.25 159.84-3.75Q160.19-2.95 161.81-2.48 163.44-2 165.44-2L165.44-2Q169.74-2 172.34-5.18 174.94-8.35 174.94-14.5L174.94-14.5Q174.94-20 172.61-22.73 170.29-25.45 166.74-25.45L166.74-25.45ZM196.03 0.55Q190.23 0.55 187.11-3.43 183.98-7.4 183.98-14L183.98-14Q183.98-18.25 185.63-21.55 187.28-24.85 190.21-26.68 193.13-28.5 196.78-28.5L196.78-28.5Q201.23-28.5 203.71-25.95 206.18-23.4 206.38-18.6L206.38-18.6Q206.38-15.5 206.08-14.2L206.08-14.2 188.28-14.2Q188.28-8.95 190.66-5.63 193.03-2.3 197.33-2.3L197.33-2.3Q199.43-2.3 201.63-3.05 203.83-3.8 205.03-4.85L205.03-4.85 205.83-3Q204.38-1.5 201.61-0.48 198.83 0.55 196.03 0.55L196.03 0.55ZM188.33-16.55L201.88-16.55Q202.03-17.6 202.03-18.75L202.03-18.75Q201.98-22.05 200.46-24 198.93-25.95 195.78-25.95L195.78-25.95Q188.93-25.95 188.33-16.55L188.33-16.55ZM211.08 0L211.08-2.1 215.08-2.4 215.08-24.45 211.23-25.3 211.23-27.55 217.58-28.35 217.68-28.35 218.63-27.55 218.63-26.75 218.53-22.95 218.63-22.95Q218.73-23.05 219.96-24.48 221.18-25.9 223.61-27.2 226.03-28.5 228.48-28.5L228.48-28.5Q229.28-28.5 229.98-28.3L229.98-28.3 229.98-23.9Q229.78-24.05 229.11-24.2 228.43-24.35 227.68-24.35L227.68-24.35Q224.83-24.35 222.83-23.5 220.83-22.65 219.13-21.4L219.13-21.4 219.13-2.45 225.78-2.05 225.78 0 211.08 0Z" fill="#d90000" data-fill-palette-color="accent"></path><path d="M236.78-2.6L236.78-34.45 232.78-35 232.78-37.15 238.83-37.15Q240.38-37.15 243.28-37.35L243.28-37.35Q246.18-37.55 247.68-37.55L247.68-37.55Q257.03-37.55 261.51-32.83 265.98-28.1 265.98-19.7L265.98-19.7Q265.98-13.75 263.63-9.2 261.28-4.65 257.11-2.13 252.93 0.4 247.53 0.4L247.53 0.4Q246.38 0.4 243.68 0.2L243.68 0.2Q240.58 0 238.88 0L238.88 0 232.48 0 232.48-2.15 236.78-2.6ZM240.88-2.45Q242.93-2.05 245.93-2.05L245.93-2.05 247.63-2.05Q251.73-2.1 254.88-4.05 258.03-6 259.81-9.75 261.58-13.5 261.58-18.8L261.58-18.8Q261.58-35.15 246.38-35.15L246.38-35.15Q244.73-35.15 242.63-34.95L242.63-34.95Q241.33-34.85 240.88-34.85L240.88-34.85 240.88-2.45ZM270.23 0L270.23-2.1 274.23-2.4 274.23-24.45 270.38-25.3 270.38-27.55 276.73-28.35 276.83-28.35 277.78-27.55 277.78-26.75 277.68-22.95 277.78-22.95Q277.88-23.05 279.1-24.48 280.33-25.9 282.75-27.2 285.18-28.5 287.63-28.5L287.63-28.5Q288.43-28.5 289.13-28.3L289.13-28.3 289.13-23.9Q288.93-24.05 288.25-24.2 287.58-24.35 286.83-24.35L286.83-24.35Q283.98-24.35 281.98-23.5 279.98-22.65 278.28-21.4L278.28-21.4 278.28-2.45 284.93-2.05 284.93 0 270.23 0ZM292.83-7.3Q292.83-12.15 297.63-14.33 302.43-16.5 309.58-16.65L309.58-16.65 309.58-18.2Q309.58-20.75 309.05-22.23 308.53-23.7 307.23-24.38 305.93-25.05 303.58-25.05L303.58-25.05Q301.03-25.05 298.95-24.28 296.88-23.5 294.93-22.4L294.93-22.4 293.83-24.6Q294.38-25.1 296.13-26 297.88-26.9 300.13-27.6 302.38-28.3 304.48-28.3L304.48-28.3Q307.88-28.3 309.85-27.35 311.83-26.4 312.7-24.3 313.58-22.2 313.58-18.65L313.58-18.65 313.58-2.15 316.68-2.15 316.68-0.3Q313.93 0.45 312.03 0.45L312.03 0.45Q310.83 0.45 310.38 0.08 309.93-0.3 309.93-1.65L309.93-1.65 309.93-3.5Q308.13-1.9 306-0.68 303.88 0.55 301.18 0.55L301.18 0.55Q297.58 0.55 295.2-1.45 292.83-3.45 292.83-7.3L292.83-7.3ZM302.68-2.4Q304.08-2.4 306.03-3.3 307.98-4.2 309.58-5.45L309.58-5.45 309.58-14.3Q303.53-14.25 300.4-12.5 297.28-10.75 297.28-7.8L297.28-7.8Q297.28-4.95 298.73-3.68 300.18-2.4 302.68-2.4L302.68-2.4ZM332.22 13.5Q320.42 13.5 320.42 6L320.42 6Q320.42 3.75 321.8 1.9 323.17 0.05 325.07-1L325.07-1Q322.72-2.25 322.72-5.15L322.72-5.15Q322.72-7 323.77-8.63 324.82-10.25 326.47-11.1L326.47-11.1Q324.12-12.2 322.8-14.23 321.47-16.25 321.47-18.95L321.47-18.95Q321.47-21.85 323.07-24.03 324.67-26.2 327.25-27.35 329.82-28.5 332.62-28.5L332.62-28.5Q337.27-28.5 340.07-26.45L340.07-26.45Q340.82-27.15 342.4-27.83 343.97-28.5 345.77-28.5L345.77-28.5 347.42-28.5 347.42-24.8 341.72-24.8Q343.17-22.8 343.17-19.95L343.17-19.95Q343.17-17 341.67-14.73 340.17-12.45 337.65-11.2 335.12-9.95 332.07-9.95L332.07-9.95Q330.02-9.95 328.32-10.4L328.32-10.4Q327.42-9.7 326.9-8.78 326.37-7.85 326.37-6.9L326.37-6.9Q326.37-5 327.6-4.25 328.82-3.5 331.87-3.5L331.87-3.5 337.77-3.5Q342.42-3.5 344.65-1.7 346.87 0.1 346.87 3.35L346.87 3.35Q346.87 6.05 344.92 8.38 342.97 10.7 339.6 12.1 336.22 13.5 332.22 13.5L332.22 13.5ZM332.57-12.4Q338.92-12.4 338.92-19.4L338.92-19.4Q338.92-26.05 332.32-26.05L332.32-26.05Q325.72-26.05 325.72-19.5L325.72-19.5Q325.72-16.35 327.42-14.38 329.12-12.4 332.57-12.4L332.57-12.4ZM332.47 10.95Q335.17 10.95 337.62 10.18 340.07 9.4 341.57 7.93 343.07 6.45 343.07 4.5L343.07 4.5Q343.07 2.95 342.6 2 342.12 1.05 340.75 0.53 339.37 0 336.77 0L336.77 0 330.57 0Q328.17 0 326.92-0.3L326.92-0.3Q324.47 2.05 324.47 5.2L324.47 5.2Q324.47 8.05 326.27 9.5 328.07 10.95 332.47 10.95L332.47 10.95ZM350.22-14.05Q350.22-18.4 352.05-21.7 353.87-25 356.85-26.75 359.82-28.5 363.07-28.5L363.07-28.5Q369.37-28.5 372.4-24.4 375.42-20.3 375.42-13.9L375.42-13.9Q375.42-9.55 373.6-6.25 371.77-2.95 368.79-1.2 365.82 0.55 362.57 0.55L362.57 0.55Q356.27 0.55 353.25-3.55 350.22-7.65 350.22-14.05L350.22-14.05ZM362.82-2.05Q366.67-2.05 368.77-5 370.87-7.95 370.87-13.6L370.87-13.6Q370.87-19 368.92-22.45 366.97-25.9 362.87-25.9L362.87-25.9Q359.02-25.9 356.9-22.95 354.77-20 354.77-14.35L354.77-14.35Q354.77-8.9 356.75-5.48 358.72-2.05 362.82-2.05L362.82-2.05ZM383.12-2.55L383.12-24.45 379.27-25.3 379.27-27.55 385.62-28.35 385.77-28.35 386.72-27.55 386.72-25.35 386.67-24.1Q388.52-25.7 391.57-27.05 394.62-28.4 397.22-28.4L397.22-28.4Q400.42-28.4 402.14-27.18 403.87-25.95 404.54-23.43 405.22-20.9 405.22-16.65L405.22-16.65 405.22-2.5 408.97-2.15 408.97 0 397.82 0 397.82-2.15 401.17-2.5 401.17-16.7Q401.17-19.85 400.74-21.65 400.32-23.45 399.09-24.38 397.87-25.3 395.52-25.3L395.52-25.3Q393.52-25.3 391.19-24.3 388.87-23.3 387.17-21.95L387.17-21.95 387.17-2.55 390.82-2.15 390.82 0 379.77 0 379.77-2.15 383.12-2.55Z" fill="#0063db" data-fill-palette-color="primary"></path></g></svg></g></svg></g></svg></g></svg></g><g transform="matrix(1,0,0,1,420.34494064874997,0)"><svg viewBox="0 0 128.02025314587658 128.02025314587658" height="128.02025314587658" width="128.02025314587658"><g><svg></svg></g><g id="icon-0"><svg viewBox="0 0 128.02025314587658 128.02025314587658" height="128.02025314587658" width="128.02025314587658"><g><path d="M0 64.01c0-35.352 28.658-64.01 64.01-64.01 35.352 0 64.01 28.658 64.01 64.01 0 35.352-28.658 64.01-64.01 64.01-35.352 0-64.01-28.658-64.01-64.01zM64.01 123.279c32.733 0 59.269-26.535 59.269-59.269 0-32.733-26.535-59.269-59.269-59.268-32.733 0-59.269 26.535-59.268 59.268 0 32.733 26.535 59.269 59.268 59.269z" data-fill-palette-color="accent" fill="#d90000" stroke="transparent"></path></g><g transform="matrix(1,0,0,1,26.9675841400284,39.881088076229794)"><svg viewBox="0 0 74.08508486581978 48.25807699341699" height="48.25807699341699" width="74.08508486581978"><g><svg xmlns="http://www.w3.org/2000/svg" xmlns:xlink="http://www.w3.org/1999/xlink" version="1.1" x="0" y="0" viewBox="8.000000000000007 23.399999999999984 82.89999999999998 53.99999999999999" enable-background="new 0 0 100 100" xml:space="preserve" height="48.25807699341699" width="74.08508486581978" class="icon-g$-0" data-fill-palette-color="accent" id="g$-0"><path d="M90.1 37.2c-0.1-1.2-0.2-4.1-0.2-5.1 0-0.9 0.2-3.3 0.2-3.3s-4 4.5-4.9 5.3c-0.8 0.8-4.6 4.4-4.6 4.4s1.5 0.3 2.2 0.2c0.8 0 2.3-0.2 2.3-0.2L84 41.2c0 0-2.6-1.2-4.5-1.1-2 0-4.9 1.5-5 3.8-0.1 2.3 1.8 3.9 3.6 4 1.9 0 3.6-0.2 4.2-0.4 0 0-0.6 2.6-4.5 2.4-3.9-0.1-6.2-1.1-7.8-1.1-1.5 0-5.6-0.1-5.6-0.1s1-2 3.2-2.7c2.1-0.7 4-0.2 4-0.2s-2.5-2.8-1.1-5.7c1.4-2.9 5.2-5.4 6.8-5.6 0 0-2.6-1-2.6-2.6 0-1.6 4.1-5.6 6.1-6.8l-12.7 5c0 0-2.6 0.1-3.1-1.8-0.5-1.9 1.2-4.9 1.2-4.9S57 29.2 54 31.2c-3 2-5.9 4.4-6.5 5-0.7 0.6-1.9 2-1.8 3.9s0 4.2-0.3 4.6c-0.2 0.4-0.9 1.3-0.9 1.3s-1.6 0.3-2.9 0.6c-1.3 0.3-3.2 0.7-3.2 0.7s-0.6-1.3-0.6-1.6 0.4-1.2 0.9-1.2c0.6 0 1 0 1.4 0.3 0 0 0.5-0.9-0.6-1.5-1.1-0.7-2.1-0.8-2-2.1 0.1-1.4 1.1-0.8 1.6-0.6s1.3 0.6 1.8 1c0 0-0.1-1.4-0.6-2-0.6-0.6-1.7-0.7-2.1-1.8-0.4-1.1 0.6-1.6 1.2-1.4 0.6 0.2 1.5 0.7 1.9 0.7 0 0 0.2-0.8-0.5-1.7-0.7-0.9-2.1-1-2.1-1.6 0-0.6 1.6-0.7 2.4-0.6 0 0 0-0.6-0.9-1.1-0.9-0.5-1.4-0.4-1.6-0.6-0.1-0.2-1-1.7-1-1.7s0-0.8 0.6-1.4c0.6-0.6 2.5-1.8 2.5-1.8l-0.8-0.2 0.4-2.7c0 0-0.6 0.8-1.9 1.1s-2.7 0.7-3.3 1-1.2 0.8-1.2 0.8-5.3-0.4-6.3-0.3c-1 0-2.4 0.6-2.7 2 0 0-3.8 0.3-5.1 0.6-1.3 0.3-3.1 1.4-3.7 2.4 0 0 2.9-0.3 4.1-0.3s2.4 0.6 2.5 1.7h0.6l0.7 0.6 0-0.7 0.6 0.4 0-0.8 0.7 0.5v-0.9l0.7 0.6 0-1.2c0 0 1.4-0.1 2.5 0.7 1 0.8 0.7 0.9 0.7 0.9s-2.6 0.7-4.7 0.7-9.2 0-9.2 0l1.9-1c0 0-2.1-0.2-3.4-0.7-1.3-0.5-3.3-1.4-3.7-1.9 0 0 1 2.2 2.2 3.7s3.1 2.8 3.7 3.1l-0.7-1.4 7.5 0.3c0 0 0.1 1 0.2 1.1 0.1 0.1 0.2 0.8 0.7 1.3 0 0-0.1 0.5-0.1 1s0.6 1 0.6 1l1.1-2.8 0.7 1.4c0 0 0.4-1.6 1.4-2.3 1-0.7 1.7-0.6 1.7-0.6l0.5 1.2c0 0-0.7 0.3-1.1 1.1-0.4 0.8-0.2 1.6-0.2 1.6s-0.8 0.6-1 1.2-0.3 1.5-0.3 1.5-0.7 0.4-1.1 1.3c-0.4 0.9-0.3 1.7-0.3 1.7s-0.8 0.4-1 1.5S24.6 49 24.6 49s-0.9 0.7-0.9 2.3 0.7 2.2 1 2.4c0 0-0.3 0.3-0.5 0.7-0.2 0.3-0.3 0.7-0.3 0.7s-0.3 0-0.6 0-0.5 0.3-0.5 0.3-0.2-0.5-0.7-0.7c-0.5-0.2-1.4 0-1.4 0s-0.3-0.7-0.8-1c-0.5-0.4-1-0.3-1.4-0.3 0 0 0-1.1-0.3-1.4-0.3-0.3-0.7-0.6-1.2-0.7 0 0-0.1-1.8-0.4-3.1-0.3-1.2-1-1.8-1-2.3 0-0.4 0.7-1 1.1-1.3 0.5-0.3 0.8-0.7 1-1.3 0.1-0.6 0-0.9 0.1-1.1 0.1-0.3 0.4-1.2 0.3-1.5-0.1-0.3-0.5-0.9-0.8-1 0 0 0.1 0.8-0.1 1.2-0.2 0.3-0.6 0.9-0.6 0.9s-0.3 0-0.6 0.3c-0.3 0.3-0.6 0.7-0.6 0.7s0.1-0.9 0.3-1.3c0.2-0.4 0.2-1.1 0.1-1.6-0.1-0.5-0.4-0.5-0.4-0.5s-0.3-0.7-0.9-1.2c-0.6-0.5-1.7-0.7-1.7-0.7s0.8 0.6 1 1.1c0.2 0.6 0.2 1.2 0.2 1.2s-0.4 1.1-0.5 2c-0.1 0.9 0.2 2.6 0.2 2.6s-0.7-1.6-1-2.3c-0.3-0.8-0.8-1.2-1-1.2 0 0-0.6-0.8-1.1-1-0.5-0.2-1.2-0.2-1.7-0.1 0 0 0.9 0.4 1.2 0.9 0.3 0.5 0.3 0.8 0.3 0.8s-0.4 0.3-0.3 0.5c0.1 0.3 0.1 0.6 0.4 0.8 0 0-0.1 1 0.3 1.6s1.4 1 1.4 1-0.1 1.5-0.2 2.4c-0.1 1-0.2 2.7-0.2 2.7s-0.4 0.1-0.7 0.5c-0.2 0.4-0.7 1.2-1.1 1.5-0.4 0.3-0.7 0.6-0.5 0.8 0.2 0.1 0.3 0.2 0.3 0.2s0.1 0.8-0.4 1c-0.5 0.3-0.8 0.6-1.4 0.7 0 0 1.3 0.4 1.7 0.1 0.4-0.2 0.8-0.3 1-0.8 0 0 0.4 0.1 0.7-0.2 0.3-0.3 0.4-1.4 0.7-2 0.3-0.6 1-1.7 1-1.7s0.6 2.5 1.5 3.7c0.9 1.2 1.3 2 2.3 2.8 1 0.8 3.4 3.3 4.1 4.9 0.7 1.6 1 3.5 1 4.2 0 0 1.1-1 1.5-1.9C23.7 63.9 24 63 24 63s0.9-0.4 2.1-0.5c1.1-0.1 2.8-0.1 2.8-0.1s-0.2 0.3-0.3 0.7 0.1 0.9 0.1 0.9-0.7 0.2-1 0.7c-0.3 0.6 0 1.4 0 1.4s-0.8 0.5-1 1.1c-0.3 0.6-0.3 1.8-0.3 1.8s-0.8 1.4-1.7 1.8c-0.8 0.4-2.7 1.1-4.2 0.3-1.5-0.8-2.1-0.8-2.6-0.8 0 0-0.7-0.5-1.5-0.5-0.8 0-1.5 0.7-1.4 1.3 0 0 0.7-0.5 1.1-0.3 0.4 0.2 0.7 0.6 0.7 0.6s-0.1 0.3-0.1 0.4c0 0.1 0.2 0.3 0.2 0.3l-0.4 0.6c0 0-0.8-0.1-1.5 0-0.7 0.1-1.5 1-1.6 1.5 0 0 1.1-0.5 1.7-0.4 0.5 0.1 1.2 0.3 1.2 0.3s0.1 0.1 0.3 0.1c0.2 0 0.4 0 0.4 0l-0.1 0.7c0 0-0.6 0.1-1.1 0.6-0.5 0.5-0.7 1.8-0.7 1.8s1-0.9 1.5-1C17 76 17.4 76 17.4 76s0.2 0.5 1.3 0.5 2.7-1.4 3.3-1.4c0.6 0 1.1-0.1 1.4 0 0.3 0.1 1.1 0.2 1.5 0.1 0.4-0.2 0.8-0.7 1.4-0.7 0.6 0 1.3 0.4 1.9 0.8 0.6 0.4 1.8 0.8 2.4 0.6 0.7-0.2 0.9-0.6 1.4-0.6 0.5 0.1 1.2 0.4 1.3 0.7 0 0 0.1-1.2-0.6-1.6-0.7-0.4-1.4-0.3-1.4-0.3s-0.1-0.3-0.6-0.5c-0.6-0.1-0.9 0.1-1.6-0.1-0.7-0.2-1.2-0.5-1.2-0.5s0.6-2.6 1.8-4c1.2-1.4 2.8-2.7 3.6-3.6 0.8-1 1.4-1.6 1.4-1.6s0.3 1.7 0.6 2.1c0.2 0.4 1.1 2.2 1.1 2.2s1-1.9 1.1-2.3c0.1-0.3 0.2-1 0.2-1s0.5-0.3 1-0.6c0.6-0.4 0.9-0.7 0.9-0.7s0.9 0.2 1.8-0.1c0.9-0.3 2.4-1.1 2.9-1.7 0 0 0.5 0.3 1.1 0.2 0.6 0 1.2-0.3 1.2-0.3s-0.3 1 0 1.6c0.3 0.6 1.5 1.9 2.4 2 0 0 0.1 1 1 1.4 0.9 0.3 2.7 0.4 2.7 0.4s0.2 0.4 0.4 0.6C53.6 67.8 54 68 54 68s-0.5 0.3-0.7 0.6c-0.2 0.3-0.2 0.9-0.2 0.9s-0.6 0-1 0.3c-0.4 0.2-0.6 0.9-0.6 0.9s-0.6-0.1-1.6 0.1c-1 0.2-1.8 0.6-1.8 0.6s-1.4-0.3-2-0.8c-0.6-0.4-1.5-1.5-2.1-1.7-0.6-0.3-1.2-0.3-1.3 0.1 0 0-0.5-0.4-1.2-0.2-0.6 0.2-1.4 0.8-1.5 1.5 0 0 0.8-0.7 1.3-0.6 0.5 0.1 0.6 0.2 0.8 0.6 0 0 0 0.6 0.6 0.7s1.7-0.1 3 1.6c0 0-0.5 0.5-1.3 0.2-0.8-0.2-1.6-1-2.4-1-0.8 0-1.2 0.3-1.2 0.3s-0.6-0.1-1.2 0.1c-0.6 0.3-1.1 0.6-1.2 1.7 0 0 0.6-0.6 1.1-0.7 0.5 0 0.7 0.3 0.7 0.3s0.1 0.3 0.4 0.5c0.3 0.2 1.1 0.4 1.1 0.4l0 0.2c0 0-0.8 0.1-1 0.7-0.2 0.6 0 1.4 0 1.4s0.6-0.9 1.1-0.9c0.5-0.1 1 0.1 1 0.1s0.1 0.4 0.4 0.3c0.4-0.1 1.4-1 3.1-1.2 1.7-0.2 2.8-0.3 3.4 0.1 0 0 1.1-0.7 1.8-0.5s2.5 1.5 3.3 1.6c0.8 0.1 1.4-0.6 1.9-0.4s1 0.4 1.2 0.8c0.2 0.4 0.3-1-0.4-1.4-0.8-0.4-1.8-0.6-1.8-0.6s-0.2-0.3-0.8-0.5c-0.6-0.2-1.2 0.1-1.7-0.1-0.4-0.1-0.8-0.3-0.8-0.3s7.5-2.2 9.4-6.9l3.5 1.2c0 0 0.2-1.8-0.9-2.4-1.1-0.6-1.7-0.5-2.6-0.8-0.9-0.4-2.9-0.6-3.3-1.3-0.4-0.7-0.9-2.3-0.2-3.1 0.6-0.8 1-0.8 1.2-1 0.2-0.3 0.6-0.5 0.7-0.9 0 0 0.7 0.1 1 0.4 0.4 0.2 0.8 0.4 1.1 0.4 0 0 0.5 0.8 1.1 1.1 0.7 0.3 1.5 0.5 2.1 0.4 0 0 0.7 0.7 1.8 0.8 1.1 0 2-0.3 2-0.3s0.4 0.6 1.4 0.7c1 0.1 2-0.2 2-0.2s0.2 0.4 0.9 0.4c0.7 0 1.2 0 1.2 0s0.1 0.5 0.3 0.7c0.3 0.2 0.6 0.5 0.8 0.6 0 0-0.3 0.7-0.2 1.2 0.1 0.5 0.2 0.9 0.5 1.5 0 0-0.2 0.7-0.2 1.1 0 0.5 0 0.9 0 0.9s-0.5 0.3-0.8 0.8c-0.3 0.6-0.1 1 0.1 1.3 0 0-0.4 1-1.3 1.5-0.9 0.5-2.1 0.7-3.5-0.3s-2.2-2.1-2.6-2.3c-0.3-0.2-0.8 0-0.9 0.3 0 0-0.6-0.1-1.2 0.2-0.6 0.3-1 0.8-1 1.2 0 0 0.7-0.4 1.1-0.3 0.4 0.1 0.7 0.1 0.9 0.4 0 0-0.2 0.2-0.1 0.4s1.6 0.7 1.6 0.7-1 0-1.5 0c-0.5 0-0.8 0.4-0.8 0.4s-0.6 0.1-1.2 0.5-1 1-0.9 1.5c0 0 0.7-0.8 1.3-0.8 0.6 0 1 0.1 1 0.1s-0.1 0.3 0.2 0.3c0.3 0 3.8 0 3.8 0s-1.4 0.3-1.8 0.5c-0.4 0.2-0.6 0.7-0.6 0.7s-0.6 0.1-1 0.5c-0.3 0.3-0.8 1.6-0.8 1.6s1.1-0.7 1.5-0.8c0.4-0.1 1.3 0.1 1.6 0 0.3-0.1 1.6-1.2 2.1-1.3s1.4-0.3 2.2 0.2c0.8 0.6 1.8 0.1 2.4-0.1 0.6-0.3 2-0.6 3.4 0.1C81 76 81.4 76 81.5 76c0.1-0.1 0.1-0.2 0.1-0.2s0.9-0.2 1.3 0.1c0.4 0.2 0.6 0.2 0.9 0.6 0 0-0.3-1.3-0.9-1.7-0.6-0.4-0.9-0.3-0.9-0.3s-0.1-0.2-0.3-0.3c-0.2-0.1-1.9-0.7-1.9-0.7s-0.2-0.3-0.3-0.5c-0.1-0.2-0.4-0.7-0.4-0.7s0-0.4 0.2-1c0.2-0.6 1-4.4 1-6 0-1.6-0.3-3.8-0.8-4.5l2.5 1.7c0 0 0.4 0.2 0.7 0.1 0.3 0 1-0.1 1-0.3-0.1-0.2-2-2.1-3.2-2.8-1.2-0.8-6.9-3.8-6.9-3.8s6.3-0.5 8.9-2.9c2.6-2.4 4.3-4 4.2-6.4-0.1-2.4-0.8-3-0.8-3l1.5-4.8c0 0 1 1.6 1.7 2.1 0.7 0.5 1.8 0.9 1.8 0.9S90.2 38.4 90.1 37.2zM79.4 45.7c-1.3 0-2-0.7-2-1.2 0-0.4 0.7-1.2 2.1-1.2s2.4 1.2 2.4 1.2C81.5 45.1 80.8 45.7 79.4 45.7z" fill="#d90000" data-fill-palette-color="accent"></path></svg></g></svg></g></svg></g></svg></g></svg></g><defs></defs></svg><rect width="395.52" height="92.33731662265336" fill="none" stroke="none" visibility="hidden"></rect></g></svg></g></svg>